<svg xmlns="http://www.w3.org/2000/svg" xmlns:xlink="http://www.w3.org/1999/xlink" viewBox="0 0 178.04 30"><defs><style>.cls-1{fill:#ec6c00;}.cls-2{fill:url(#新規グラデーションスウォッチ_1);}</style><linearGradient id="新規グラデーションスウォッチ_1" x1="154.39" y1="19.07" x2="174.68" y2="-10.12" gradientUnits="userSpaceOnUse"><stop offset="0" stop-color="#ec6c00"/><stop offset="1" stop-color="#e4004f"/></linearGradient></defs><title>slowtime-design</title><g id="レイヤー_2" data-name="レイヤー 2"><g id="レイヤー_1-2" data-name="レイヤー 1"><path class="cls-1" d="M16.64,20.9V10l-.57,0L12,10v.42l.77.06c1.23.09,1.6.46,1.6,1.29v8.73c0,1.26-.37,1.63-1.56,1.63h-.6v.42h6.56v-.4h-.3C17,22.1,16.64,21.81,16.64,20.9Z"/><path class="cls-1" d="M26,12a5.14,5.14,0,0,0-5.83,5.2A5.57,5.57,0,0,0,26,22.78c3.33,0,5.83-2.21,5.83-5.17S29.33,12.23,26,12Zm0,10.2c-2.46,0-3.6-2.25-3.6-4.93,0-3,1.35-4.85,3.6-4.7,2.46.16,3.6,2.46,3.6,5S28.52,22.21,26,22.2Z"/><path class="cls-1" d="M45.8,15.21c1.19.13,1.33.71.86,1.6L44.83,20.7l-2-4.57c-.28-.68-.13-1.2,1.07-1.11l0-.36-4.35-.51,0,.38c.71.09.93.46,1.28,1.13l-2.13,5-2.11-5.27c-.34-.93-.17-1.18.82-1.08l0-.38-4.36-.55,0,.39a1.67,1.67,0,0,1,1.58,1.09l3.2,7.89h.43l2.82-6.41L44,22.7h.43l2.77-5.86c.63-1.16.92-1.44,2.14-1.33v-.35l-3.51-.32Z"/><path class="cls-1" d="M62.57,20.89V16.21h-.42l-2.91.72v.42c1.28,0,1.65.17,1.65,1.38v2.16c0,1-.32,1.21-1.65,1.21v.42H64V22.1C62.79,22.1,62.57,21.76,62.57,20.89Z"/><path class="cls-1" d="M91,21.94c-1.44,0-4.3-1.09-4.24-5.66l7.81-.8a3.82,3.82,0,0,0-4.6-4,6.48,6.48,0,0,0-5.35,6.2c0,3,2.4,5.1,5.74,5.1a4.91,4.91,0,0,0,4.39-2.45V19.5C93.19,21.37,92.44,21.92,91,21.94Zm-1.29-9.77c1.35-.22,2.95.53,2.85,3l-5.8.64A3.58,3.58,0,0,1,89.68,12.17Z"/><path class="cls-1" d="M62.51,14.54a1.05,1.05,0,0,0-1.06-1.06,1.07,1.07,0,0,0-1.09,1.06,1.1,1.1,0,0,0,1.09,1.09A1.08,1.08,0,0,0,62.51,14.54Z"/><path class="cls-1" d="M81.84,20.71V15.82c0-2.5-1.73-3.15-3-3a4.49,4.49,0,0,0-3.23,2.36,2.51,2.51,0,0,0-2.74-1.85c-1.62.2-2.39,1.59-3.11,2.76h0V14.2l-.42,0-3,.52v.41l.54,0c.79-.06,1.21.22,1.21,1.17v4.43c0,1.29-.44,1.39-1.48,1.39v.41h4.64v-.4c-1.11,0-1.48-.32-1.48-1.2v-4.1c.57-1,1.53-2.46,2.52-2.53a1.66,1.66,0,0,1,1.85,1.84v4.21c0,1.62-.27,1.75-1.46,1.75v.43h4.59v-.45c-1.19,0-1.46-.36-1.46-1.32v-5c.77-1.28,1.53-1.89,2.47-2a1.65,1.65,0,0,1,1.9,1.83v4.55c0,1.57-.25,1.84-1.48,1.85v.45h4.64V22C82.14,22.05,81.84,21.7,81.84,20.71Z"/><path class="cls-1" d="M111,20.56V4.33h-.47a21.54,21.54,0,0,0-4.28.81C101.41,6.29,76.79,11.87,53.33,12V8.91H52.9A7,7,0,0,1,50.22,12c-24.94-.4-42-7-42.18-7.11H8s0,0,0,0a7.73,7.73,0,0,0-.87-.25L6.9,4.55l-.15,0-.39,0a7,7,0,0,0-.71,0,5.48,5.48,0,0,0-2.76.69A5,5,0,0,0,1,7a4.72,4.72,0,0,0-.66,2.4,4.53,4.53,0,0,0,1.38,3.37,7.66,7.66,0,0,0,1.25,1q.61.39,1.89,1.08a11.13,11.13,0,0,1,2.77,1.94,3.38,3.38,0,0,1,.91,2.44,3.62,3.62,0,0,1-.31,1.45,2.75,2.75,0,0,1-1.13,1.23,4.05,4.05,0,0,1-2.16.51,4.73,4.73,0,0,1-3.05-1,5,5,0,0,1-1.69-3H0v4.43H.21a5,5,0,0,1,.21-.77.32.32,0,0,1,.33-.18,2,2,0,0,1,.49.12A10.06,10.06,0,0,0,3,22.69a7.25,7.25,0,0,0,1.94.24,5.82,5.82,0,0,0,2.93-.68,4.51,4.51,0,0,0,1.77-1.73,4.46,4.46,0,0,0,.58-2.19,3.91,3.91,0,0,0-1.08-2.92,13.89,13.89,0,0,0-3-2.14q-1.17-.65-1.86-1.08A7,7,0,0,1,3,11.26a3.29,3.29,0,0,1-.76-1.14A3.93,3.93,0,0,1,2,8.64a4.06,4.06,0,0,1,.43-1.91A3.29,3.29,0,0,1,3.64,5.42a3.44,3.44,0,0,1,1.82-.48h0A7.14,7.14,0,0,1,8,5.64H8l.07,0h0c.18.07,17.67,6.68,43.4,6.86l.13,0v7.88a2.48,2.48,0,0,0,2.58,2.61,3.44,3.44,0,0,0,2.71-1.49l-.28-.33A2.07,2.07,0,0,1,55,22.1c-1,0-1.62-.63-1.62-1.87V12.54c24.35-.12,49.85-6.21,53.45-7.06.42-.08,1.28-.17,1.7.33.68,1.06.6,3.78.6,4.9v2.81a5.84,5.84,0,0,0-3.32-1.2,4.82,4.82,0,0,0-4.63,5c0,2.31,1.56,5.13,5.74,5.13h5.74V22C111.36,22,111,21.64,111,20.56Zm-1.9,0c0,1.06-.45,1.51-1.56,1.51-3.23,0-4.32-2.73-4.32-5.1s1.23-4,3-4a3.75,3.75,0,0,1,2.87,1.67Z"/><path class="cls-1" d="M118.09,22.1c-1.18,0-3.53-1-3.48-4.91H121a3.67,3.67,0,0,0-3.78-3.65,4.51,4.51,0,0,0-4.39,4.71,4.47,4.47,0,0,0,4.71,4.54,4.13,4.13,0,0,0,3.6-1.88v-.64C119.91,21.68,119.3,22.1,118.09,22.1Zm-1.06-8a2.37,2.37,0,0,1,2.35,2.72h-4.76C114.7,15.14,115.57,14.05,117,14.05Z"/><path class="cls-1" d="M124.29,15.21c0-.72.59-1.18,1.46-1.18a2.23,2.23,0,0,1,2.17,2.2h.49V13.54H128c-.12.3-.3.42-.52.42-.59,0-.86-.42-1.78-.42A2.63,2.63,0,0,0,123,16.05c0,3,4.64,2.3,4.64,4.74a1.49,1.49,0,0,1-1.53,1.51,2.92,2.92,0,0,1-2.81-2.54h-.42v3h.42a.6.6,0,0,1,.57-.59c.42,0,1.26.64,2.22.64a2.76,2.76,0,0,0,2.77-2.69C128.88,16.84,124.29,17.44,124.29,15.21Z"/><path class="cls-1" d="M132.38,11.16a1.07,1.07,0,0,0,1.06-1.09A1.05,1.05,0,0,0,132.38,9a1.07,1.07,0,0,0-1.09,1.06A1.1,1.1,0,0,0,132.38,11.16Z"/><path class="cls-1" d="M133.2,20.89V13.54h-.42l-2.91.27v.42c1.28,0,1.65.1,1.65,1.31v5.36c0,1-.32,1.21-1.65,1.21v.42h4.79V22.1C133.42,22.1,133.2,21.76,133.2,20.89Z"/><path class="cls-1" d="M140.71,13.58c-.42,0-.84,0-1.16,0a3.58,3.58,0,0,0-3.7,3.65,3.33,3.33,0,0,0,2.74,3.31v0c-1.73.62-2.69,1.38-2.69,2.39,0,.74.72,1.33,1.9,1.6v0c-2.22.91-2.84,1.78-2.84,2.74,0,1.61,1.75,2.67,4.3,2.67,3,0,5.38-1.6,5.38-3.65a2,2,0,0,0-.72-1.55c-1.23-1.23-5.82-1.23-6.52-2a.57.57,0,0,1-.17-.49c0-.54,1.48-1.55,2.84-1.63a3.53,3.53,0,0,0,3.26-3.46,4,4,0,0,0-1-2.54h2.32v-1h-2.81C141.55,13.63,141.13,13.61,140.71,13.58Zm3,13.53c0,1.16-1.36,2-3.28,2-2.49,0-4.39-.94-4.39-2.2,0-.89.91-1.63,2.54-2.07C142.78,25.51,143.72,26,143.72,27.11Zm-4.15-6.94c-1.28,0-2.15-1.26-2.15-3.16s.86-3,2.17-3,2.15,1.21,2.15,3C141.75,19,140.86,20.18,139.57,20.18Z"/><path class="cls-1" d="M157,22a4.81,4.81,0,0,1-1.59,0c-.44-.19-.55-.59-.55-1.35V16.67a2.94,2.94,0,0,0-3-3.13,4.22,4.22,0,0,0-3.16,1.75V13.54h-.42l-2.72.27v.42c1.18,0,1.46.22,1.46,1.28v4.91c0,1.58-.3,1.68-1.46,1.68v.42h4.62V22.1c-1.31,0-1.48-.35-1.48-1.68V16.15c.86-1.16,1.63-1.7,2.49-1.7a1.87,1.87,0,0,1,1.95,2V21c0,.81-.32,1.09-1.51,1.09v.42h4.67v-.24l.34,0Z"/><path class="cls-2" d="M177.87,9.11a10.2,10.2,0,0,0-2.55-5.46,10.51,10.51,0,0,0-3.08-2.25A14.16,14.16,0,0,0,168.33.18,15,15,0,0,0,166.21,0H148.56a3.63,3.63,0,0,0-1.37.27A2.91,2.91,0,0,0,145.46,2a3.63,3.63,0,0,0,.47,3,8.81,8.81,0,0,0,2.74,2.52,3.06,3.06,0,0,1,.34.24l.42.28.86.53c.62.37,1.26.71,1.9,1,1.35.69,2.72,1.33,4.1,2s2.77,1.24,4.11,1.95a7.74,7.74,0,0,1,3,2.46,3.28,3.28,0,0,1,.57,1.74,2.75,2.75,0,0,1-.57,1.7,5.84,5.84,0,0,1-2.9,1.84,14.08,14.08,0,0,1-2.16.43l-2.1.29c-1.48.19-3,.33-4.43.45H165.7a16.76,16.76,0,0,0,1.79-.06,13.5,13.5,0,0,0,6.12-2.13,9.71,9.71,0,0,0,3.42-4A12.94,12.94,0,0,0,177.87,9.11ZM177,14.29a13.48,13.48,0,0,0,.13-4.14,10.61,10.61,0,0,0-.9-3.24A9.28,9.28,0,0,0,172.73,3a13,13,0,0,0-6.06-1.88h-.29c-2.83.07-3.29,2.71-3.35,3.93v9.59a10.33,10.33,0,0,0-2.61-1.79l-.48-.24-.24-.12a1.48,1.48,0,0,1-.25-.12V5.66c0-.16,0-.32,0-.48,0-1.17-.43-4.06-3.46-4.06h-6.64a5.42,5.42,0,0,0-1.89.2,2,2,0,0,0-1,1,3.34,3.34,0,0,0-.32,1.55,2.35,2.35,0,0,1,.74-2.59,2.92,2.92,0,0,1,1.45-.53c.32,0,.64,0,1,0h16c.57,0,1.13,0,1.7,0A12.78,12.78,0,0,1,173.58,3a9,9,0,0,1,3.35,5,12.36,12.36,0,0,1,.38,2.76A13.22,13.22,0,0,1,177,14.29Z"/></g></g></svg>