<svg xmlns="http://www.w3.org/2000/svg" viewBox="0 0 105 26.7"><defs><style>.cls-1{fill:#231815;}</style></defs><title>craft</title><g id="レイヤー_2" data-name="レイヤー 2"><g id="レイヤー_1-2" data-name="レイヤー 1"><path class="cls-1" d="M51.88,24H48.68a.62.62,0,0,1-.62-.62V12.64a.62.62,0,0,1,.62-.62h3.21a.62.62,0,0,1,.62.62V23.41a.62.62,0,0,1-.62.62M40.93.62V2.05a.62.62,0,0,0,.62.62H51.88a.62.62,0,0,1,.62.62V8.73a.62.62,0,0,1-.62.62H41.55a.62.62,0,0,0-.62.62V26.08a.62.62,0,0,0,.62.62H59a.65.65,0,0,0,.62-.72V.53A.61.61,0,0,0,59,0H41.55a.62.62,0,0,0-.62.62"/><path class="cls-1" d="M0,.62V26.08a.62.62,0,0,0,.62.62H15.4a.62.62,0,0,0,.62-.62V24.65A.61.61,0,0,0,15.4,24H7.74a.62.62,0,0,1-.62-.62V3.29a.62.62,0,0,1,.62-.62H15.4A.62.62,0,0,0,16,2.05V.62A.62.62,0,0,0,15.4,0H.62A.62.62,0,0,0,0,.62"/><path class="cls-1" d="M20.46.62V26.08a.62.62,0,0,0,.63.62H27a.62.62,0,0,0,.62-.62V3.29a.62.62,0,0,1,.62-.62h7.66a.62.62,0,0,0,.61-.62V.62A.62.62,0,0,0,35.87,0H21.09a.62.62,0,0,0-.63.62"/><path class="cls-1" d="M104.38,9.35H99a.62.62,0,0,1-.62-.62V.62A.62.62,0,0,0,97.71,0H91.83a.62.62,0,0,0-.62.62v8.1a.62.62,0,0,1-.62.62H78.48a.62.62,0,0,1-.62-.62V3.29a.62.62,0,0,1,.62-.62h7.66a.62.62,0,0,0,.62-.62V.62A.62.62,0,0,0,86.14,0H71.37a.62.62,0,0,0-.62.62v8.1a.62.62,0,0,1-.62.62H64.69a.62.62,0,0,0-.62.62V11.4a.62.62,0,0,0,.62.62h5.43a.62.62,0,0,1,.62.62V26.08a.62.62,0,0,0,.62.62h5.88a.62.62,0,0,0,.62-.62V12.64a.61.61,0,0,1,.62-.62H90.6a.62.62,0,0,1,.62.62V26.08a.62.62,0,0,0,.62.62h5.88a.62.62,0,0,0,.62-.62V12.64A.62.62,0,0,1,99,12h5.43a.62.62,0,0,0,.62-.62V10a.62.62,0,0,0-.62-.62"/></g></g></svg>