<svg xmlns="http://www.w3.org/2000/svg" viewBox="0 0 118.5 56"><defs><style>.cls-1{fill:#f2c81f;}.cls-2{fill:#3d3a39;}</style></defs><title>yamaha</title><g id="レイヤー_2" data-name="レイヤー 2"><g id="レイヤー_1-2" data-name="レイヤー 1"><path class="cls-1" d="M.9,55.88c-.5.3-.9,0-.9-.6V.68c0-.6.4-.9.9-.5l42.9,27.3a.67.67,0,0,1,0,1.2Z"/><path class="cls-2" d="M57,23.08H55.2s-2.7,6.2-2.8,6.5c-.2-.3-2.9-6.5-2.9-6.5H47.7l3.8,8.7c0,.1-1.4,3.3-1.4,3.3h1.8l5.3-12Z"/><path class="cls-2" d="M54.2,38.68h0a2.36,2.36,0,0,0-.8.9,3.33,3.33,0,0,0-.3-.6,2.09,2.09,0,0,0-.6-.4,1.88,1.88,0,0,0-.8-.2,2.66,2.66,0,0,0-1.2.3,1.7,1.7,0,0,0-.6.6v-.8H49V44h.9v-2.3a5.42,5.42,0,0,1,.2-1.5,1.06,1.06,0,0,1,.6-.7,1.61,1.61,0,0,1,.9-.3,1.45,1.45,0,0,1,.7.2,1,1,0,0,1,.4.5,4.15,4.15,0,0,1,.1,1.3V44h.9v-2.2a5.14,5.14,0,0,1,.2-1.6,1.06,1.06,0,0,1,.6-.7,1.61,1.61,0,0,1,.9-.3,1.45,1.45,0,0,1,.7.2,1,1,0,0,1,.4.5,3.11,3.11,0,0,1,.1,1.1v3h.9V41a4.87,4.87,0,0,0-.2-1.5,1.78,1.78,0,0,0-.7-.8,1.69,1.69,0,0,0-1-.3A2.42,2.42,0,0,0,54.2,38.68Z"/><path class="cls-2" d="M63.2,38.48h-.8v2.6a3.81,3.81,0,0,1-.1,1.3,1.79,1.79,0,0,1-.5.7,1.61,1.61,0,0,1-.9.3,1.69,1.69,0,0,1-1-.3,1.16,1.16,0,0,1-.5-.7,3.45,3.45,0,0,1-.1-1.2v-2.6h-.9v2.7a3.42,3.42,0,0,0,.3,1.7,2.36,2.36,0,0,0,.8.9,2.9,2.9,0,0,0,1.4.3,3.19,3.19,0,0,0,1.4-.3,1.76,1.76,0,0,0,.8-.9,4,4,0,0,0,.3-1.7l-.2-2.8Z"/><path class="cls-2" d="M64.8,38.78h0a1.37,1.37,0,0,0-.4,1.1,1.61,1.61,0,0,0,.3.9,2.9,2.9,0,0,0,1,.8,1.83,1.83,0,0,1,.8.6.76.76,0,0,1,.2.5.86.86,0,0,1-.3.6.84.84,0,0,1-.7.2,1.54,1.54,0,0,1-1.1-.6l-.1-.1-.6.6v.1a4.35,4.35,0,0,0,.7.6,2.92,2.92,0,0,0,.9.2,1.71,1.71,0,0,0,1.7-1.7,1.61,1.61,0,0,0-.3-.9,3.47,3.47,0,0,0-1.1-.8,3.78,3.78,0,0,1-.8-.5.76.76,0,0,1-.2-.4c0-.2.1-.3.2-.5a.76.76,0,0,1,.5-.2,1.59,1.59,0,0,1,1,.5l.1.1.6-.6-.1-.1a2.13,2.13,0,0,0-1.6-.7C65.5,38.38,65.1,38.48,64.8,38.78Z"/><path class="cls-2" d="M68.6,36.48a.76.76,0,0,0-.2.5c0,.2.1.3.2.5a.76.76,0,0,0,.5.2c.2,0,.3-.1.5-.2a.76.76,0,0,0,.2-.5c0-.2-.1-.3-.2-.5a.72.72,0,0,0-1,0Zm.8,2h-.8V44h.9l-.1-5.5Z"/><path class="cls-2" d="M72.1,38.78h0a2.9,2.9,0,0,0-1.1,1.1,2.6,2.6,0,0,0-.4,1.5,2.52,2.52,0,0,0,.9,2,3.29,3.29,0,0,0,2.2.8,3.34,3.34,0,0,0,1.5-.3,3.13,3.13,0,0,0,1.1-.9v-.1l-.7-.4v.1a2.32,2.32,0,0,1-1.9.9,2,2,0,0,1-1.1-.3,2,2,0,0,1-.8-.8,2.17,2.17,0,0,1,.3-2.6,2.11,2.11,0,0,1,1.6-.6,2.32,2.32,0,0,1,1.9.9v.1l.7-.4v-.1a4.35,4.35,0,0,0-.6-.7,1.88,1.88,0,0,0-.9-.4,3.55,3.55,0,0,0-1-.2A3.06,3.06,0,0,0,72.1,38.78Z"/><path class="cls-2" d="M49.3,47.78a2.91,2.91,0,0,0,.1,3.9,2.58,2.58,0,0,0,2.1.9,3.59,3.59,0,0,0,1.1-.2,4.05,4.05,0,0,0,.9-.5,3.11,3.11,0,0,0,.7-.9v-.1l-.7-.4v.1a2.17,2.17,0,0,1-.6.7c-.2.1-.4.3-.6.4a2.2,2.2,0,0,1-.8.1,2,2,0,0,1-1.4-.6,2.25,2.25,0,0,1-.6-1.4h4.9v-.1a3.08,3.08,0,0,0-.6-1.9,2.84,2.84,0,0,0-2.3-1.1A3,3,0,0,0,49.3,47.78Zm.9.3h0a2.11,2.11,0,0,1,1.3-.5,2.92,2.92,0,0,1,.9.2,1.79,1.79,0,0,1,.7.5,1.61,1.61,0,0,1,.4.7H49.7A1.05,1.05,0,0,1,50.2,48.08Z"/><path class="cls-2" d="M57.1,47.08a2.7,2.7,0,0,0-.8.7V47h-.9v5.5h.9v-2a4.55,4.55,0,0,1,.1-1.4,2.07,2.07,0,0,1,.6-1,1.5,1.5,0,0,1,1.1-.4,1.88,1.88,0,0,1,.8.2,1,1,0,0,1,.4.7c0,.2.1.6.1,1.2v2.6h.9v-2.8a5.67,5.67,0,0,0-.2-1.6,3.11,3.11,0,0,0-.7-.9,2,2,0,0,0-1.1-.3A2.13,2.13,0,0,0,57.1,47.08Z"/><path class="cls-2" d="M62.9,45.68h-.8v1.5h-1V48h1v4.5H63V48h1.1v-.8H63a6.62,6.62,0,0,0-.1-1.5Z"/><path class="cls-2" d="M65.3,47.78a2.91,2.91,0,0,0,.1,3.9,2.58,2.58,0,0,0,2.1.9,3.59,3.59,0,0,0,1.1-.2,4.05,4.05,0,0,0,.9-.5,3.11,3.11,0,0,0,.7-.9v-.1l-.7-.4v.1a2.17,2.17,0,0,1-.6.7c-.2.1-.4.3-.6.4a2.2,2.2,0,0,1-.8.1,2,2,0,0,1-1.4-.6,2.25,2.25,0,0,1-.6-1.4h4.9v-.1a3.08,3.08,0,0,0-.6-1.9,2.84,2.84,0,0,0-2.3-1.1A3,3,0,0,0,65.3,47.78Zm.9.3h0a2.11,2.11,0,0,1,1.3-.5,2.92,2.92,0,0,1,.9.2,1.79,1.79,0,0,1,.7.5,1.61,1.61,0,0,1,.4.7H65.7A1.05,1.05,0,0,1,66.2,48.08Z"/><path class="cls-2" d="M72.2,46.88h-.8v5.5h.9v-1.7a7.67,7.67,0,0,1,.1-1.8,1.23,1.23,0,0,1,.5-.8.86.86,0,0,1,.6-.3.37.37,0,0,1,.3.1h.1l.4-.8h-.1a1.49,1.49,0,0,0-.6-.1,2.35,2.35,0,0,0-.8.2,1.21,1.21,0,0,0-.5.5c0-.3,0-.8-.1-.8Z"/><path class="cls-2" d="M76.4,45.68h-.8v1.5h-.9V48h.9v4.5h.9V48h1.1v-.8H76.5a6.62,6.62,0,0,0-.1-1.5Z"/><path class="cls-2" d="M78.9,47.58h0a2.57,2.57,0,0,0-.8,2,3.23,3.23,0,0,0,.8,2.1,2.57,2.57,0,0,0,2,.8,2.38,2.38,0,0,0,1.2-.3,5.5,5.5,0,0,0,.9-.7v.8h.9v-5.5H83v.8a2.7,2.7,0,0,0-.8-.7,2.66,2.66,0,0,0-1.2-.3A4.13,4.13,0,0,0,78.9,47.58Zm1.1,3.9h0a2,2,0,0,1-.8-.8,1.93,1.93,0,0,1-.3-1,1.69,1.69,0,0,1,.3-1,2.7,2.7,0,0,1,.7-.8,1.93,1.93,0,0,1,1-.3,1.68,1.68,0,0,1,1.4.6,2,2,0,0,1,.6,1.5,1.69,1.69,0,0,1-.3,1,1.58,1.58,0,0,1-.7.7,1.93,1.93,0,0,1-1,.3A1.49,1.49,0,0,1,80,51.48Z"/><path class="cls-2" d="M89.2,47.08a2.7,2.7,0,0,0-.8.7V47h-.9v5.5h.9v-2a4.55,4.55,0,0,1,.1-1.4,2.07,2.07,0,0,1,.6-1,1.5,1.5,0,0,1,1.1-.4,1.88,1.88,0,0,1,.8.2,1,1,0,0,1,.4.7,3.45,3.45,0,0,1,.1,1.2v2.6h.9v-2.8a5.67,5.67,0,0,0-.2-1.6,3.11,3.11,0,0,0-.7-.9,2,2,0,0,0-1.1-.3A2.13,2.13,0,0,0,89.2,47.08Z"/><path class="cls-2" d="M98.9,47.08a3,3,0,0,0-.8.8,3.33,3.33,0,0,0-.3-.6,2.09,2.09,0,0,0-.6-.4,1.88,1.88,0,0,0-.8-.2,2.66,2.66,0,0,0-1.2.3,1.7,1.7,0,0,0-.6.6v-.8h-.9v5.5h.9V50a5.42,5.42,0,0,1,.2-1.5,1.06,1.06,0,0,1,.6-.7,1.61,1.61,0,0,1,.9-.3,1.45,1.45,0,0,1,.7.2,1,1,0,0,1,.4.5,4.15,4.15,0,0,1,.1,1.3v2.8h.9v-2.2a5.67,5.67,0,0,1,.2-1.6,1.06,1.06,0,0,1,.6-.7,1.61,1.61,0,0,1,.9-.3,1.45,1.45,0,0,1,.7.2,1,1,0,0,1,.4.5,3.11,3.11,0,0,1,.1,1.1v3h.9v-3a4.87,4.87,0,0,0-.2-1.5,1.78,1.78,0,0,0-.7-.8,1.69,1.69,0,0,0-1-.3A4.67,4.67,0,0,0,98.9,47.08Z"/><path class="cls-2" d="M103.7,47.78a2.91,2.91,0,0,0,.1,3.9,2.58,2.58,0,0,0,2.1.9,3.59,3.59,0,0,0,1.1-.2,4.05,4.05,0,0,0,.9-.5,3.11,3.11,0,0,0,.7-.9v-.1l-.7-.4v.1a2.17,2.17,0,0,1-.6.7c-.2.1-.4.3-.6.4a2.2,2.2,0,0,1-.8.1,2,2,0,0,1-1.4-.6,2.25,2.25,0,0,1-.6-1.4h4.9v-.1a3.08,3.08,0,0,0-.6-1.9,2.84,2.84,0,0,0-2.3-1.1A3,3,0,0,0,103.7,47.78Zm.9.3h0a2.11,2.11,0,0,1,1.3-.5,2.92,2.92,0,0,1,.9.2,1.79,1.79,0,0,1,.7.5,1.61,1.61,0,0,1,.4.7h-3.8A1.35,1.35,0,0,1,104.6,48.08Z"/><path class="cls-2" d="M111.6,47.08h0a5,5,0,0,0-.8.7V47h-.9v5.5h.9v-2a4.55,4.55,0,0,1,.1-1.4,2.07,2.07,0,0,1,.6-1,1.5,1.5,0,0,1,1.1-.4,1.88,1.88,0,0,1,.8.2,1,1,0,0,1,.4.7,3.45,3.45,0,0,1,.1,1.2v2.6h.9v-2.8a5.67,5.67,0,0,0-.2-1.6,3.11,3.11,0,0,0-.7-.9,2,2,0,0,0-1.1-.3A2.13,2.13,0,0,0,111.6,47.08Z"/><path class="cls-2" d="M85.2,44.88a.76.76,0,0,0-.2.5c0,.2.1.3.2.5a.76.76,0,0,0,.5.2c.2,0,.3-.1.5-.2a.76.76,0,0,0,.2-.5c0-.2-.1-.3-.2-.5a.72.72,0,0,0-1,0Zm.8,2h-.8v5.5h.9l-.1-5.5Z"/><path class="cls-2" d="M94.6,20.18H93v11.6h1.6V30a13.38,13.38,0,0,1,.2-2.6,3.41,3.41,0,0,1,1.1-1.8,2.81,2.81,0,0,1,1.9-.7,2.41,2.41,0,0,1,1.5.4,2.73,2.73,0,0,1,.8,1.4,11.62,11.62,0,0,1,.1,2.2v2.9h1.6v-3.2a7.7,7.7,0,0,0-.4-3,3.44,3.44,0,0,0-1.3-1.6,3.61,3.61,0,0,0-2-.6,4.55,4.55,0,0,0-2,.5,5.26,5.26,0,0,0-1.4,1.2c-.1-.1-.1-4.9-.1-4.9Z"/><path class="cls-2" d="M75.8,23.88A5.73,5.73,0,0,0,74.7,25a4.35,4.35,0,0,0-.4-.7,2.55,2.55,0,0,0-1-.7,2.66,2.66,0,0,0-1.2-.3,4.07,4.07,0,0,0-1.8.5c-.2.2-.5.4-.7.6v-1H68v8.2h1.6v-3.2a6.08,6.08,0,0,1,.3-2.2,4.44,4.44,0,0,1,.8-1.1,1.92,1.92,0,0,1,1.2-.4,1.22,1.22,0,0,1,.9.3,1.16,1.16,0,0,1,.5.7,7.13,7.13,0,0,1,.2,1.9v3.9h1.6v-3a6.6,6.6,0,0,1,.3-2.4,2.26,2.26,0,0,1,.8-1.1,1.92,1.92,0,0,1,1.2-.4,1.22,1.22,0,0,1,.9.3,1.16,1.16,0,0,1,.5.7,5.94,5.94,0,0,1,.2,1.7v4.2h1.6v-4.2a7,7,0,0,0-.3-2.4,2.68,2.68,0,0,0-1-1.3,3,3,0,0,0-1.6-.5A10.84,10.84,0,0,0,75.8,23.88Z"/><path class="cls-2" d="M111.6,47.08a2.7,2.7,0,0,0-.8.7V47h-.9v5.5h.9v-2a4.55,4.55,0,0,1,.1-1.4,2.07,2.07,0,0,1,.6-1,1.5,1.5,0,0,1,1.1-.4,1.14,1.14,0,0,1,.8.3,1,1,0,0,1,.4.7c0,.2.1.6.1,1.2v2.6h.9v-2.8a5.67,5.67,0,0,0-.2-1.6,3.11,3.11,0,0,0-.7-.9,2,2,0,0,0-1.1-.3A1.55,1.55,0,0,0,111.6,47.08Z"/><path class="cls-2" d="M117.4,45.68h-.8v1.5h-1V48h1v4.5h.9V48h1v-.8h-1a6.62,6.62,0,0,0-.1-1.5Z"/><path class="cls-2" d="M58.5,24.58h0a4.34,4.34,0,0,0-1.3,3,4.47,4.47,0,0,0,1.2,3.1,4.16,4.16,0,0,0,3,1.3,3.42,3.42,0,0,0,1.8-.4,4.62,4.62,0,0,0,1-.7v.9H66v-8.2H64.4v1a2.76,2.76,0,0,0-.9-.7,4.06,4.06,0,0,0-1.9-.4A3.65,3.65,0,0,0,58.5,24.58Zm1.8,5.5h0a2.41,2.41,0,0,1-1-1,3.26,3.26,0,0,1-.4-1.4,2.3,2.3,0,0,1,.4-1.4,2.41,2.41,0,0,1,1-1,3.26,3.26,0,0,1,1.4-.4,3,3,0,0,1,2,.8,2.79,2.79,0,0,1,.8,2,2.3,2.3,0,0,1-.4,1.4,3.18,3.18,0,0,1-1,1,3.26,3.26,0,0,1-1.4.4A2.3,2.3,0,0,1,60.3,30.08Z"/><path class="cls-2" d="M83.5,24.58h0a4.34,4.34,0,0,0-1.3,3,4.47,4.47,0,0,0,1.2,3.1,4.16,4.16,0,0,0,3,1.3,3.42,3.42,0,0,0,1.8-.4,4.62,4.62,0,0,0,1-.7v.9h1.6v-8.2H89.2v1a2.76,2.76,0,0,0-.9-.7,4.06,4.06,0,0,0-1.9-.4A3.27,3.27,0,0,0,83.5,24.58Zm1.7,5.5h0a2.41,2.41,0,0,1-1-1,2.65,2.65,0,0,1,0-2.8,2.41,2.41,0,0,1,1-1,3.26,3.26,0,0,1,1.4-.4,3,3,0,0,1,2,.8,2.79,2.79,0,0,1,.8,2,2.3,2.3,0,0,1-.4,1.4,3.18,3.18,0,0,1-1,1,3.26,3.26,0,0,1-1.4.4A2.3,2.3,0,0,1,85.2,30.08Z"/><path class="cls-2" d="M104.5,24.58h0a4.34,4.34,0,0,0-1.3,3,4.47,4.47,0,0,0,1.2,3.1,4.16,4.16,0,0,0,3,1.3,3.42,3.42,0,0,0,1.8-.4,4.62,4.62,0,0,0,1-.7v.9h1.6v-8.2h-1.6v1a2.76,2.76,0,0,0-.9-.7,4.06,4.06,0,0,0-1.9-.4A3.27,3.27,0,0,0,104.5,24.58Zm1.7,5.5h0a2.41,2.41,0,0,1-1-1,2.65,2.65,0,0,1,0-2.8,2.41,2.41,0,0,1,1-1,3.26,3.26,0,0,1,1.4-.4,3,3,0,0,1,2,.8,2.79,2.79,0,0,1,.8,2,2.3,2.3,0,0,1-.4,1.4,3.18,3.18,0,0,1-1,1,3.26,3.26,0,0,1-1.4.4A2.3,2.3,0,0,1,106.2,30.08Z"/></g></g></svg>